<svg width="33" height="33" viewBox="0 0 33 33" fill="none" xmlns="http://www.w3.org/2000/svg">
<rect x="5.5" y="5.5" width="9.625" height="9.625" rx="1.5" fill="#A1A5B7"/>
<path opacity="0.3" fill-rule="evenodd" clip-rule="evenodd" d="M17.875 7C17.875 6.17157 18.5466 5.5 19.375 5.5H26C26.8284 5.5 27.5 6.17157 27.5 7V13.625C27.5 14.4534 26.8284 15.125 26 15.125H19.375C18.5466 15.125 17.875 14.4534 17.875 13.625V7ZM5.5 19.375C5.5 18.5466 6.17157 17.875 7 17.875H13.625C14.4534 17.875 15.125 18.5466 15.125 19.375V26C15.125 26.8284 14.4534 27.5 13.625 27.5H7C6.17157 27.5 5.5 26.8284 5.5 26V19.375ZM19.375 17.875C18.5466 17.875 17.875 18.5466 17.875 19.375V26C17.875 26.8284 18.5466 27.5 19.375 27.5H26C26.8284 27.5 27.5 26.8284 27.5 26V19.375C27.5 18.5466 26.8284 17.875 26 17.875H19.375Z" fill="#A1A5B7"/>
</svg>
