<svg width="14" height="24" viewBox="0 0 14 24" fill="none" xmlns="http://www.w3.org/2000/svg">
<g clip-path="url(#clip0_508_1506)">
<path d="M10.1708 10.9406L4.92082 9.45938C4.31318 9.29063 3.89026 8.74219 3.89026 8.13281C3.89026 7.36875 4.53193 6.75 5.32429 6.75H8.54721C9.14026 6.75 9.7236 6.92344 10.2097 7.24219C10.5062 7.43437 10.9048 7.3875 11.1576 7.14844L12.8493 5.55469C13.1944 5.23125 13.1458 4.69219 12.7618 4.40625C11.5708 3.50625 10.0833 3.00469 8.55693 3V0.75C8.55693 0.3375 8.20693 0 7.77915 0H6.2236C5.79582 0 5.44582 0.3375 5.44582 0.75V3H5.32429C2.22776 3 -0.261128 5.56406 0.0256779 8.60625C0.229845 10.7672 1.94096 12.525 4.09929 13.1344L9.08193 14.5406C9.68957 14.7141 10.1125 15.2578 10.1125 15.8672C10.1125 16.6313 9.47082 17.25 8.67846 17.25H5.45554C4.86248 17.25 4.27915 17.0766 3.79304 16.7578C3.49651 16.5656 3.0979 16.6125 2.84512 16.8516L1.15346 18.4453C0.808317 18.7687 0.856928 19.3078 1.24096 19.5938C2.43193 20.4937 3.91943 20.9953 5.44582 21V23.25C5.44582 23.6625 5.79582 24 6.2236 24H7.77915C8.20693 24 8.55693 23.6625 8.55693 23.25V20.9906C10.8222 20.9484 12.9465 19.65 13.6951 17.5828C14.7403 14.6953 12.9854 11.7328 10.1708 10.9406Z" fill="#A1A5B7"/>
</g>
<defs>
<clipPath id="clip0_508_1506">
<rect width="14" height="24" fill="white"/>
</clipPath>
</defs>
</svg>
