<svg width="16" height="25" viewBox="0 0 16 25" fill="none" xmlns="http://www.w3.org/2000/svg">
<path d="M7.60092 0C4.16205 0 1.93469 1.54634 0.185981 4.30411C-0.131242 4.80438 -0.0334424 5.49029 0.409066 5.85854L2.26759 7.40517C2.7145 7.77706 3.35036 7.6901 3.70024 7.20903C4.77944 5.7252 5.57997 4.87086 7.26569 4.87086C8.59111 4.87086 10.2305 5.80705 10.2305 7.21764C10.2305 8.284 9.42843 8.83165 8.11973 9.6369C6.59359 10.576 4.57402 11.7447 4.57402 14.6682V15.131C4.57402 15.7578 5.03695 16.2658 5.60802 16.2658H8.73031C9.30138 16.2658 9.76431 15.7578 9.76431 15.131V14.858C9.76431 12.8314 15.1613 12.747 15.1613 7.26289C15.1613 3.13288 11.2579 0 7.60092 0ZM7.16918 17.6588C5.52357 17.6588 4.18476 19.1282 4.18476 20.9342C4.18476 22.7403 5.52357 24.2096 7.16918 24.2096C8.81479 24.2096 10.1536 22.7403 10.1536 20.9342C10.1536 19.1281 8.81479 17.6588 7.16918 17.6588Z" fill="#A1A5B7"/>
</svg>
