<svg width="27" height="27" viewBox="0 0 27 27" fill="none" xmlns="http://www.w3.org/2000/svg">
<path opacity="0.3" fill-rule="evenodd" clip-rule="evenodd" d="M14.2917 15.75L17.625 11.25H15.125V6.75L10.125 13.5H12.625V15.75H6.75C6.12868 15.75 5.625 15.2463 5.625 14.625V3.375C5.625 2.75368 6.12868 2.25 6.75 2.25H20.25C20.8713 2.25 21.375 2.75368 21.375 3.375V14.625C21.375 15.2463 20.8713 15.75 20.25 15.75H14.2917Z" fill="#A1A5B7"/>
<path fill-rule="evenodd" clip-rule="evenodd" d="M11.0298 12.2786L10.125 13.5001H12.625V18.0001L17.625 11.2501H17.3942L22.7332 7.39425C22.985 7.21237 23.3366 7.26908 23.5185 7.52092C23.5877 7.61678 23.625 7.73202 23.625 7.85026V19.1251C23.625 20.3678 22.6176 21.3751 21.375 21.3751H5.625C4.38236 21.3751 3.375 20.3678 3.375 19.1251V7.85026C3.375 7.5396 3.62684 7.28776 3.9375 7.28776C4.05574 7.28776 4.17098 7.32502 4.26684 7.39425L11.0298 12.2786Z" fill="#A1A5B7"/>
</svg>
