<svg width="24" height="19" viewBox="0 0 24 19" fill="none" xmlns="http://www.w3.org/2000/svg">
<path d="M22.8 1.1875H1.2C0.537375 1.1875 0 1.71928 0 2.375V16.625C0 17.2807 0.537375 17.8125 1.2 17.8125H22.8C23.4626 17.8125 24 17.2807 24 16.625V2.375C24 1.71928 23.4626 1.1875 22.8 1.1875ZM6.6 12.1674V12.7656C6.6 12.9296 6.46575 13.0625 6.3 13.0625H5.7C5.53425 13.0625 5.4 12.9296 5.4 12.7656V12.1611C4.97662 12.1396 4.56488 11.9934 4.22363 11.7399C4.07737 11.6312 4.06988 11.4145 4.20225 11.2894L4.64288 10.8734C4.74675 10.7754 4.90125 10.771 5.02275 10.8463C5.16788 10.9361 5.3325 10.9844 5.5035 10.9844H6.55763C6.80137 10.9844 7.00013 10.7647 7.00013 10.4949C7.00013 10.2741 6.86475 10.0796 6.67125 10.0225L4.98375 9.52152C4.28662 9.31445 3.7995 8.65242 3.7995 7.91135C3.7995 7.00143 4.51388 6.26221 5.39963 6.23883V5.64062C5.39963 5.4766 5.53388 5.34375 5.69963 5.34375H6.29963C6.46538 5.34375 6.59963 5.4766 6.59963 5.64062V6.24514C7.023 6.26666 7.43475 6.4125 7.776 6.66633C7.92225 6.77506 7.92975 6.99178 7.79738 7.11684L7.35675 7.53283C7.25287 7.6308 7.09838 7.63525 6.97688 7.55992C6.83175 7.46975 6.66713 7.42188 6.49613 7.42188H5.442C5.19825 7.42188 4.9995 7.64156 4.9995 7.91135C4.9995 8.13215 5.13488 8.3266 5.32837 8.38375L7.01588 8.88473C7.713 9.0918 8.20013 9.75383 8.20013 10.4949C8.20013 11.4052 7.48575 12.144 6.6 12.1674ZM15.6 11.5781C15.6 11.7421 15.4658 11.875 15.3 11.875H11.1C10.9343 11.875 10.8 11.7421 10.8 11.5781V10.9844C10.8 10.8204 10.9343 10.6875 11.1 10.6875H15.3C15.4658 10.6875 15.6 10.8204 15.6 10.9844V11.5781ZM21.6 11.5781C21.6 11.7421 21.4658 11.875 21.3 11.875H18.3C18.1343 11.875 18 11.7421 18 11.5781V10.9844C18 10.8204 18.1343 10.6875 18.3 10.6875H21.3C21.4658 10.6875 21.6 10.8204 21.6 10.9844V11.5781ZM21.6 8.01562C21.6 8.17965 21.4658 8.3125 21.3 8.3125H11.1C10.9343 8.3125 10.8 8.17965 10.8 8.01562V7.42188C10.8 7.25785 10.9343 7.125 11.1 7.125H21.3C21.4658 7.125 21.6 7.25785 21.6 7.42188V8.01562Z" fill="#A1A5B7"/>
</svg>
