<svg width="27" height="22" viewBox="0 0 27 22" fill="none" xmlns="http://www.w3.org/2000/svg">
<g clip-path="url(#clip0_508_1504)">
<path d="M21.0069 9.7084L12.0681 0.604098C11.6884 0.217303 11.1733 2.86033e-06 10.6362 0H2.025C0.906609 0 0 0.923398 0 2.0625V10.8332C2.80832e-06 11.3802 0.213352 11.9048 0.593114 12.2916L9.53189 21.3959C10.3226 22.2014 11.6048 22.2014 12.3957 21.3959L21.0069 12.6252C21.7977 11.8198 21.7977 10.5139 21.0069 9.7084ZM4.725 6.875C3.60661 6.875 2.7 5.9516 2.7 4.8125C2.7 3.6734 3.60661 2.75 4.725 2.75C5.84339 2.75 6.75 3.6734 6.75 4.8125C6.75 5.9516 5.84339 6.875 4.725 6.875ZM26.4069 12.6252L17.7957 21.3959C17.0049 22.2014 15.7227 22.2014 14.9319 21.3959L14.9167 21.3804L22.2598 13.9013C22.977 13.1709 23.3719 12.1998 23.3719 11.1668C23.3719 10.1338 22.9769 9.1627 22.2598 8.43227L13.9808 0H16.0362C16.5733 2.86033e-06 17.0884 0.217303 17.4681 0.604098L26.4069 9.7084C27.1977 10.5139 27.1977 11.8198 26.4069 12.6252Z" fill="#A1A5B7"/>
</g>
<defs>
<clipPath id="clip0_508_1504">
<rect width="27" height="22" fill="white"/>
</clipPath>
</defs>
</svg>
