<svg width="27" height="27" viewBox="0 0 27 27" fill="none" xmlns="http://www.w3.org/2000/svg">
<path d="M26.1562 20.25H3.375V4.21875C3.375 3.75258 2.99742 3.375 2.53125 3.375H0.84375C0.377578 3.375 0 3.75258 0 4.21875V21.9375C0 22.8693 0.755684 23.625 1.6875 23.625H26.1562C26.6224 23.625 27 23.2474 27 22.7812V21.0938C27 20.6276 26.6224 20.25 26.1562 20.25ZM24.4688 5.0625H18.2429C17.1155 5.0625 16.5507 6.42568 17.348 7.22303L19.0566 8.93162L15.1875 12.8013L11.3184 8.93215C10.6592 8.27297 9.5908 8.27297 8.93215 8.93215L5.30982 12.5545C4.98023 12.8841 4.98023 13.4183 5.30982 13.7479L6.50268 14.9407C6.83227 15.2703 7.36647 15.2703 7.69605 14.9407L10.125 12.5112L13.9941 16.3804C14.6533 17.0395 15.7217 17.0395 16.3804 16.3804L21.4429 11.3179L23.1514 13.0264C23.9488 13.8238 25.312 13.259 25.312 12.1315V5.90625C25.3125 5.44008 24.9349 5.0625 24.4688 5.0625Z" fill="#A1A5B7"/>
</svg>
