<svg width="25" height="25" viewBox="0 0 25 25" fill="none" xmlns="http://www.w3.org/2000/svg">
<g clip-path="url(#clip0_508_1418)">
<path d="M21.1579 16.0324C21.27 15.7709 21.5264 15.601 21.807 15.6H21.901C23.6098 15.6 25 14.2097 25 12.501C25 10.7922 23.6098 9.40199 21.901 9.40199H21.7275C21.4866 9.40102 21.2661 9.27934 21.136 9.08344C21.1216 9.0123 21.0995 8.94272 21.0701 8.87592C20.9522 8.60884 21.007 8.30156 21.2098 8.09185L21.2652 8.03648C21.2667 8.03501 21.2682 8.0335 21.2697 8.03198C21.8547 7.44634 22.1766 6.66793 22.1761 5.84015C22.1757 5.01379 21.8539 4.23699 21.2701 3.65232C21.2686 3.65076 21.2671 3.64925 21.2655 3.64768C20.6803 3.06307 19.9026 2.74124 19.0755 2.74124C19.0749 2.74124 19.0743 2.74124 19.0737 2.74124C18.2459 2.74168 17.4679 3.06448 16.8833 3.64973L16.8254 3.70764C16.6158 3.91033 16.3085 3.96521 16.0414 3.84734C16.038 3.84592 16.0347 3.84446 16.0314 3.84304C15.7698 3.73093 15.6 3.47454 15.5989 3.19397V3.09993C15.5989 1.3912 14.2087 0.000976562 12.4999 0.000976562C10.7911 0.000976562 9.40097 1.3912 9.40097 3.09993V3.27352C9.39999 3.51433 9.27831 3.73489 9.08242 3.86497C9.01128 3.87937 8.9417 3.90144 8.8749 3.93088C8.60786 4.0488 8.30054 3.99392 8.09082 3.79119L8.03096 3.73128C7.44566 3.14666 6.66808 2.82484 5.84093 2.82484C5.84035 2.82484 5.83966 2.82484 5.83913 2.82484C5.01135 2.82528 4.23328 3.14808 3.64666 3.73538C3.06165 4.32097 2.73973 5.09938 2.74022 5.92716C2.74066 6.75494 3.06346 7.53296 3.64871 8.11753L3.70657 8.17539C3.9093 8.38511 3.96419 8.69233 3.84632 8.95947C3.83767 8.97895 3.82976 8.99868 3.82239 9.01865C3.72161 9.29257 3.46961 9.47499 3.17864 9.48549H3.09891C1.39023 9.48549 0 10.8757 0 12.5844C0 14.2933 1.39023 15.6835 3.09905 15.6834H3.27259C3.55725 15.6845 3.81355 15.8543 3.92566 16.1158C3.92708 16.1192 3.92854 16.1225 3.92996 16.1258C4.04788 16.3929 3.99299 16.7001 3.79021 16.9099L3.73235 16.9677C3.73103 16.9691 3.72971 16.9705 3.72835 16.9718C3.14461 17.5572 2.82342 18.3348 2.82386 19.1616C2.8243 19.9894 3.1471 20.7675 3.73274 21.3524C3.73416 21.3539 3.73562 21.3553 3.73709 21.3568C4.94626 22.5618 6.91021 22.5598 8.11655 21.352L8.17446 21.2941C8.38413 21.0914 8.6914 21.0364 8.95849 21.1544C8.97793 21.163 8.99765 21.1709 9.01762 21.1783C9.2916 21.2791 9.47397 21.5311 9.48452 21.8221V21.9018C9.48452 23.6106 10.8747 25.0008 12.5835 25.0008C14.2923 25.0008 15.6825 23.6106 15.6825 21.9019V21.7284C15.6837 21.4437 15.8534 21.1874 16.115 21.0753C16.1184 21.0738 16.1216 21.0724 16.1249 21.071C16.392 20.953 16.6993 21.0079 16.909 21.2107L16.9689 21.2705C17.5542 21.8551 18.3318 22.177 19.159 22.177C19.1596 22.177 19.1602 22.177 19.1608 22.177C19.9886 22.1765 20.7666 21.8537 21.3532 21.2665C22.5608 20.0575 22.5597 18.0914 21.3512 16.8842L21.2933 16.8264C21.0906 16.6166 21.0358 16.3094 21.1536 16.0422C21.1551 16.039 21.1565 16.0357 21.1579 16.0324ZM19.8524 18.2419C19.855 18.2445 19.8576 18.2472 19.8602 18.2498L19.9233 18.3128C20.3442 18.7334 20.3447 19.4181 19.9224 19.8407C19.7187 20.0448 19.4477 20.1572 19.1595 20.1573C19.1592 20.1573 19.1591 20.1573 19.1588 20.1573C18.8707 20.1573 18.5999 20.0452 18.3949 19.8404L18.3322 19.7777C18.3296 19.7751 18.3269 19.7725 18.3243 19.7699C17.522 18.9852 16.341 18.7701 15.3139 19.2212C14.315 19.6518 13.667 20.6321 13.6626 21.7243V21.9019C13.6626 22.497 13.1785 22.9811 12.5834 22.9811C11.9883 22.9811 11.5042 22.4969 11.5042 21.9019V21.8079C11.5042 21.8 11.5041 21.7922 11.5039 21.7842C11.4777 20.6655 10.7884 19.6914 9.74472 19.294C8.72344 18.857 7.55469 19.075 6.7589 19.8534C6.75626 19.856 6.75362 19.8586 6.75099 19.8612L6.6879 19.9243C6.26739 20.3453 5.58268 20.3457 5.16164 19.9252C5.16042 19.924 5.15915 19.9227 5.15798 19.9216C4.95529 19.718 4.84367 19.4479 4.84348 19.1606C4.84328 18.8723 4.95544 18.6013 5.15915 18.3974C5.16032 18.3962 5.16144 18.395 5.16262 18.3939L5.22306 18.3334C5.2257 18.3307 5.22834 18.3281 5.23093 18.3254C6.01554 17.5233 6.23063 16.3423 5.7797 15.3152C5.34914 14.3162 4.36872 13.6682 3.27645 13.6638H3.09886C2.50379 13.6638 2.01967 13.1796 2.01967 12.5845C2.01967 11.9895 2.50384 11.5054 3.09886 11.5053H3.1929C3.20076 11.5053 3.20867 11.5052 3.21653 11.505C4.33542 11.4788 5.30944 10.7895 5.7068 9.74584C6.14371 8.72456 5.92584 7.55591 5.14743 6.76012C5.14484 6.75748 5.14221 6.75484 5.13957 6.75221L5.07653 6.68912C4.87258 6.48536 4.76018 6.21442 4.76003 5.92614C4.75984 5.63791 4.87199 5.36681 5.07736 5.1612C5.28112 4.95725 5.55207 4.84484 5.84035 4.8447C5.84059 4.8447 5.84074 4.8447 5.84098 4.8447C6.12907 4.8447 6.39991 4.95681 6.60494 5.16164L6.66764 5.22429C6.67022 5.22692 6.67291 5.22956 6.67555 5.23215C7.42833 5.96847 8.51474 6.20323 9.49457 5.85661C9.58715 5.84474 9.67792 5.82008 9.76415 5.78312C10.7661 5.35368 11.4164 4.3718 11.4208 3.27767V3.10008C11.4208 2.50501 11.9049 2.02089 12.5 2.02089C13.095 2.02089 13.5792 2.50506 13.5792 3.10013V3.19817C13.5835 4.2864 14.2316 5.26681 15.2306 5.69743C16.2578 6.1485 17.4387 5.93327 18.2409 5.14865C18.2435 5.14606 18.2461 5.14343 18.2488 5.14079L18.3119 5.07775C18.5156 4.8738 18.7866 4.7614 19.0748 4.76125C19.0751 4.76125 19.0753 4.76125 19.0755 4.76125C19.3626 4.76125 19.6328 4.87268 19.8364 5.07512C19.8375 5.07629 19.8387 5.07741 19.8398 5.07858C20.0438 5.28234 20.1562 5.55329 20.1563 5.84157C20.1565 6.12907 20.045 6.39938 19.8424 6.60313C19.8414 6.60411 19.8404 6.60509 19.8394 6.60611L19.7767 6.66881C19.7741 6.6714 19.7715 6.67403 19.7689 6.67672C19.0326 7.4295 18.7978 8.51596 19.1444 9.49574C19.1563 9.58837 19.181 9.67914 19.218 9.76537C19.6474 10.7674 20.6293 11.4177 21.7234 11.422H21.9009C22.4961 11.422 22.9802 11.9061 22.9802 12.5012C22.9802 13.0963 22.496 13.5804 21.9009 13.5804H21.8029C20.7147 13.5847 19.7344 14.2328 19.3037 15.2318C18.8527 16.2586 19.0678 17.4397 19.8524 18.2419Z" fill="#A1A5B7"/>
<path d="M12.5009 8.35657C10.2162 8.35657 8.35733 10.2153 8.35733 12.5001C8.35733 14.7849 10.2161 16.6436 12.5009 16.6436C14.7856 16.6436 16.6444 14.7849 16.6444 12.5001C16.6444 10.2153 14.7856 8.35657 12.5009 8.35657ZM12.5009 14.6238C11.3298 14.6238 10.3771 13.6711 10.3771 12.5C10.3771 11.329 11.3298 10.3763 12.5009 10.3763C13.672 10.3763 14.6246 11.329 14.6246 12.5C14.6246 13.6711 13.672 14.6238 12.5009 14.6238Z" fill="#A1A5B7"/>
</g>
<defs>
<clipPath id="clip0_508_1418">
<rect width="25" height="25" fill="white"/>
</clipPath>
</defs>
</svg>
