<svg width="25" height="25" viewBox="0 0 25 25" fill="none" xmlns="http://www.w3.org/2000/svg">
<path fill-rule="evenodd" clip-rule="evenodd" d="M5.16666 3.125C4.61437 3.125 4.16666 3.57272 4.16666 4.125V20.875C4.16666 21.4273 4.61437 21.875 5.16666 21.875H6.29166C6.84394 21.875 7.29166 21.4273 7.29166 20.875V4.125C7.29166 3.57272 6.84394 3.125 6.29166 3.125H5.16666ZM10.375 3.125C9.82271 3.125 9.37499 3.57272 9.37499 4.125V20.875C9.37499 21.4273 9.82271 21.875 10.375 21.875H11.5C12.0523 21.875 12.5 21.4273 12.5 20.875V4.125C12.5 3.57272 12.0523 3.125 11.5 3.125H10.375Z" fill="#A1A5B7"/>
<rect opacity="0.3" x="14.0387" y="4.08777" width="3.125" height="18.75" rx="1" transform="rotate(-19 14.0387 4.08777)" fill="#A1A5B7"/>
</svg>
