<svg width="26" height="26" viewBox="0 0 26 26" fill="none" xmlns="http://www.w3.org/2000/svg">
<path d="M13 0.40625C6.04297 0.40625 0.40625 6.04297 0.40625 13C0.40625 19.957 6.04297 25.5938 13 25.5938C19.957 25.5938 25.5938 19.957 25.5938 13C25.5938 6.04297 19.957 0.40625 13 0.40625ZM13 23.1562C7.38867 23.1562 2.84375 18.6113 2.84375 13C2.84375 7.38867 7.38867 2.84375 13 2.84375C18.6113 2.84375 23.1562 7.38867 23.1562 13C23.1562 18.6113 18.6113 23.1562 13 23.1562ZM16.1383 17.8547L11.827 14.7215C11.6695 14.6047 11.5781 14.4219 11.5781 14.2289V5.89062C11.5781 5.55547 11.8523 5.28125 12.1875 5.28125H13.8125C14.1477 5.28125 14.4219 5.55547 14.4219 5.89062V13.0863L17.8141 15.5543C18.0883 15.7523 18.1441 16.1332 17.9461 16.4074L16.9914 17.7227C16.7934 17.9918 16.4125 18.0527 16.1383 17.8547Z" fill="#A1A5B7"/>
</svg>
