<svg width="201" height="80" viewBox="0 0 201 80" fill="none" xmlns="http://www.w3.org/2000/svg">
<g filter="url(#filter0_d)">
<rect x="79.5" y="16.5893" width="31" height="22.8333" rx="2.5" fill="white" stroke="#F5F8FA"/>
<path fill-rule="evenodd" clip-rule="evenodd" d="M88.7146 32.2346H86.776L85.3223 26.2109C85.2533 25.9338 85.1068 25.6888 84.8913 25.5733C84.3535 25.2832 83.7608 25.0523 83.1143 24.9358V24.7039H86.2372C86.6682 24.7039 86.9915 25.0523 87.0454 25.4569L87.7996 29.802L89.7372 24.7039H91.622L88.7146 32.2346ZM92.6995 32.2346H90.8687L92.3763 24.7039H94.2071L92.6995 32.2346ZM96.5756 26.7901C96.6295 26.3845 96.9528 26.1525 97.3299 26.1525C97.9225 26.0943 98.5681 26.2108 99.1068 26.4999L99.4301 24.8785C98.8913 24.6466 98.2987 24.5302 97.7609 24.5302C95.9839 24.5302 94.6909 25.5733 94.6909 27.021C94.6909 28.1223 95.6068 28.7006 96.2533 29.049C96.9528 29.3963 97.2221 29.6283 97.1683 29.9756C97.1683 30.4967 96.6295 30.7286 96.0917 30.7286C95.4452 30.7286 94.7987 30.5549 94.207 30.2648L93.8837 31.8872C94.5302 32.1763 95.2297 32.2928 95.8762 32.2928C97.8686 32.35 99.1068 31.3079 99.1068 29.7437C99.1068 27.7739 96.5756 27.6585 96.5756 26.7901ZM105.514 32.2346L104.061 24.7039H102.499C102.176 24.7039 101.853 24.9358 101.745 25.2832L99.0529 32.2346H100.938L101.314 31.1343H103.63L103.845 32.2346H105.514ZM102.769 26.7319L103.306 29.5701H101.799L102.769 26.7319Z" fill="#172B85"/>
</g>
<g filter="url(#filter1_d)">
<rect x="157.5" y="16.5893" width="31" height="22.8333" rx="2.5" fill="white" stroke="#F5F8FA"/>
<path d="M170.486 39.4261L188.543 33.7161C188.543 36.8696 185.986 39.4261 182.833 39.4261H170.486Z" fill="#FD6020"/>
<path fill-rule="evenodd" clip-rule="evenodd" d="M185.116 25.6335C186.109 25.6335 186.655 26.1136 186.655 27.0207C186.705 27.7143 186.258 28.3011 185.662 28.4079L187.003 30.3819H185.96L184.818 28.4612H184.718V30.3819H183.874V25.6335H185.116ZM184.718 27.8211H184.967C185.513 27.8211 185.761 27.5543 185.761 27.0741C185.761 26.6473 185.513 26.3805 184.967 26.3805H184.718V27.8211ZM180.943 30.3819H183.327V29.5816H181.788V28.3011H183.278V27.5008H181.788V26.4338H183.327V25.6335H180.943V30.3819ZM178.46 28.8347L177.317 25.6335H176.423L178.261 30.4887H178.708L180.546 25.6335H179.652L178.46 28.8347ZM168.376 28.0343C168.376 29.3682 169.37 30.4886 170.612 30.4886C171.009 30.4886 171.357 30.3819 171.704 30.2218V29.1547C171.456 29.4749 171.108 29.6883 170.711 29.6883C169.916 29.6883 169.27 29.048 169.27 28.1944V28.0877C169.221 27.234 169.866 26.487 170.661 26.4337C171.059 26.4337 171.456 26.6471 171.704 26.9672V25.9002C171.406 25.6867 171.009 25.6334 170.661 25.6334C169.37 25.5267 168.376 26.6471 168.376 28.0343ZM166.836 27.4474C166.34 27.234 166.191 27.1273 166.191 26.8605C166.24 26.5404 166.489 26.2736 166.787 26.327C167.035 26.327 167.283 26.4871 167.482 26.7005L167.929 26.0602C167.582 25.7401 167.134 25.5267 166.687 25.5267C165.992 25.4733 165.396 26.0602 165.346 26.8072V26.8605C165.346 27.5008 165.595 27.8743 166.389 28.141C166.588 28.1944 166.787 28.3011 166.985 28.4078C167.134 28.5145 167.234 28.6746 167.234 28.888C167.234 29.2615 166.936 29.5816 166.638 29.5816H166.588C166.191 29.5816 165.843 29.3148 165.694 28.9413L165.148 29.5282C165.446 30.1151 166.042 30.4352 166.638 30.4352C167.432 30.4886 168.078 29.8484 168.128 28.9947V28.8346C168.078 28.1944 167.83 27.8743 166.836 27.4474ZM163.955 30.3819H164.8V25.6335H163.955V30.3819ZM160.032 25.6335H161.273H161.522C162.714 25.6868 163.658 26.7539 163.608 28.0344C163.608 28.728 163.31 29.3682 162.813 29.8484C162.366 30.2219 161.82 30.4353 161.273 30.3819H160.032V25.6335ZM161.124 29.5816C161.522 29.6349 161.969 29.4749 162.267 29.2081C162.565 28.888 162.714 28.4611 162.714 27.9809C162.714 27.5541 162.565 27.1273 162.267 26.8072C161.969 26.5404 161.522 26.3803 161.124 26.4337H160.876V29.5816H161.124Z" fill="black"/>
<path fill-rule="evenodd" clip-rule="evenodd" d="M174.237 25.5233C172.996 25.5233 171.953 26.5903 171.953 27.9775C171.953 29.3114 172.946 30.4318 174.237 30.4852C175.529 30.5385 176.522 29.4181 176.572 28.0309C176.522 26.6437 175.529 25.5233 174.237 25.5233V25.5233Z" fill="#FD6020"/>
</g>
<g filter="url(#filter2_d)">
<rect x="40.5" y="16.5893" width="31" height="22.8333" rx="2.5" fill="white" stroke="#F5F8FA"/>
<path fill-rule="evenodd" clip-rule="evenodd" d="M56.1805 33.3496C55.091 34.3707 53.6779 34.9871 52.1337 34.9871C48.688 34.9871 45.8948 31.918 45.8948 28.1321C45.8948 24.3461 48.688 21.277 52.1337 21.277C53.6779 21.277 55.0911 21.8935 56.1805 22.9146C57.2699 21.8935 58.6831 21.2771 60.2273 21.2771C63.6729 21.2771 66.4662 24.3462 66.4662 28.1321C66.4662 31.9181 63.6729 34.9872 60.2273 34.9872C58.6831 34.9872 57.2699 34.3707 56.1805 33.3496Z" fill="#ED0006"/>
<path fill-rule="evenodd" clip-rule="evenodd" d="M56.1805 33.3496C57.522 32.0922 58.3726 30.2213 58.3726 28.1321C58.3726 26.0429 57.522 24.172 56.1805 22.9146C57.27 21.8935 58.6832 21.277 60.2274 21.277C63.673 21.277 66.4662 24.3461 66.4662 28.1321C66.4662 31.918 63.673 34.9871 60.2274 34.9871C58.6832 34.9871 57.27 34.3707 56.1805 33.3496Z" fill="#F9A000"/>
<path fill-rule="evenodd" clip-rule="evenodd" d="M56.1804 33.3497C57.5218 32.0924 58.3723 30.2215 58.3723 28.1323C58.3723 26.0431 57.5218 24.1723 56.1804 22.9149C54.839 24.1723 53.9884 26.0431 53.9884 28.1323C53.9884 30.2215 54.839 32.0924 56.1804 33.3497Z" fill="#FF5E00"/>
</g>
<g filter="url(#filter3_d)">
<rect x="118.5" y="16.5893" width="31" height="22.8333" rx="2.5" fill="#1F72CD" stroke="#F5F8FA"/>
<path fill-rule="evenodd" clip-rule="evenodd" d="M123.737 24.5303L120.743 31.7268H124.327L124.771 30.5793H125.787L126.231 31.7268H130.177V30.851L130.528 31.7268H132.569L132.92 30.8325V31.7268H141.125L142.123 30.6091L143.057 31.7268L147.272 31.736L144.268 28.1486L147.272 24.5303H143.123L142.151 25.6273L141.247 24.5303H132.321L131.554 26.3878L130.77 24.5303H127.193V25.3763L126.795 24.5303H123.737ZM124.43 25.5522H126.177L128.163 30.4322V25.5522H130.077L131.611 29.0511L133.025 25.5522H134.929V30.7161H133.77L133.761 26.6697L132.072 30.7161H131.035L129.336 26.6697V30.7161H126.952L126.501 29.5585H124.059L123.608 30.7151H122.331L124.43 25.5522ZM140.701 25.5522H135.989V30.7131H140.628L142.123 29.0027L143.564 30.7131H145.071L142.881 28.1476L145.071 25.5522H143.63L142.142 27.243L140.701 25.5522ZM125.28 26.4259L124.476 28.4882H126.084L125.28 26.4259ZM137.153 27.5641V26.6214V26.6205H140.093L141.376 28.1281L140.036 29.6439H137.153V28.6148H139.723V27.5641H137.153Z" fill="white"/>
</g>
<defs>
<filter id="filter0_d" x="39" y="-23.9107" width="112" height="103.833" filterUnits="userSpaceOnUse" color-interpolation-filters="sRGB">
<feFlood flood-opacity="0" result="BackgroundImageFix"/>
<feColorMatrix in="SourceAlpha" type="matrix" values="0 0 0 0 0 0 0 0 0 0 0 0 0 0 0 0 0 0 127 0" result="hardAlpha"/>
<feOffset/>
<feGaussianBlur stdDeviation="20"/>
<feColorMatrix type="matrix" values="0 0 0 0 0 0 0 0 0 0 0 0 0 0 0 0 0 0 0.08 0"/>
<feBlend mode="normal" in2="BackgroundImageFix" result="effect1_dropShadow"/>
<feBlend mode="normal" in="SourceGraphic" in2="effect1_dropShadow" result="shape"/>
</filter>
<filter id="filter1_d" x="117" y="-23.9107" width="112" height="103.833" filterUnits="userSpaceOnUse" color-interpolation-filters="sRGB">
<feFlood flood-opacity="0" result="BackgroundImageFix"/>
<feColorMatrix in="SourceAlpha" type="matrix" values="0 0 0 0 0 0 0 0 0 0 0 0 0 0 0 0 0 0 127 0" result="hardAlpha"/>
<feOffset/>
<feGaussianBlur stdDeviation="20"/>
<feColorMatrix type="matrix" values="0 0 0 0 0 0 0 0 0 0 0 0 0 0 0 0 0 0 0.08 0"/>
<feBlend mode="normal" in2="BackgroundImageFix" result="effect1_dropShadow"/>
<feBlend mode="normal" in="SourceGraphic" in2="effect1_dropShadow" result="shape"/>
</filter>
<filter id="filter2_d" x="0" y="-23.9107" width="112" height="103.833" filterUnits="userSpaceOnUse" color-interpolation-filters="sRGB">
<feFlood flood-opacity="0" result="BackgroundImageFix"/>
<feColorMatrix in="SourceAlpha" type="matrix" values="0 0 0 0 0 0 0 0 0 0 0 0 0 0 0 0 0 0 127 0" result="hardAlpha"/>
<feOffset/>
<feGaussianBlur stdDeviation="20"/>
<feColorMatrix type="matrix" values="0 0 0 0 0 0 0 0 0 0 0 0 0 0 0 0 0 0 0.08 0"/>
<feBlend mode="normal" in2="BackgroundImageFix" result="effect1_dropShadow"/>
<feBlend mode="normal" in="SourceGraphic" in2="effect1_dropShadow" result="shape"/>
</filter>
<filter id="filter3_d" x="78" y="-23.9107" width="112" height="103.833" filterUnits="userSpaceOnUse" color-interpolation-filters="sRGB">
<feFlood flood-opacity="0" result="BackgroundImageFix"/>
<feColorMatrix in="SourceAlpha" type="matrix" values="0 0 0 0 0 0 0 0 0 0 0 0 0 0 0 0 0 0 127 0" result="hardAlpha"/>
<feOffset/>
<feGaussianBlur stdDeviation="20"/>
<feColorMatrix type="matrix" values="0 0 0 0 0 0 0 0 0 0 0 0 0 0 0 0 0 0 0.08 0"/>
<feBlend mode="normal" in2="BackgroundImageFix" result="effect1_dropShadow"/>
<feBlend mode="normal" in="SourceGraphic" in2="effect1_dropShadow" result="shape"/>
</filter>
</defs>
</svg>
