<svg width="58" height="58" viewBox="0 0 58 58" fill="none" xmlns="http://www.w3.org/2000/svg">
<path d="M23 3.4641C26.7128 1.32051 31.2872 1.32051 35 3.4641L48.1147 11.0359C51.8276 13.1795 54.1147 17.141 54.1147 21.4282V36.5718C54.1147 40.859 51.8276 44.8205 48.1147 46.9641L35 54.5359C31.2872 56.6795 26.7128 56.6795 23 54.5359L9.88526 46.9641C6.17245 44.8205 3.88526 40.859 3.88526 36.5718V21.4282C3.88526 17.141 6.17245 13.1795 9.88526 11.0359L23 3.4641Z" fill="#00A3FF"/>
<path d="M37.0052 22.2195L31.9029 17.332C25.8538 17.3486 20.957 22.041 20.957 27.8264C20.957 31.8679 23.3465 35.3754 26.8482 37.1288L26.9087 37.1563C26.3767 35.944 26.0669 34.5352 26.0669 33.057C26.0669 27.2044 30.9168 22.434 36.9841 22.2202L37.0045 22.2195H37.0052Z" fill="white"/>
<path d="M22.356 22.9953C23.3795 21.2362 24.8262 19.8138 26.5671 18.825L26.6211 18.797L26.4091 18.6817C24.8403 17.8325 22.9663 17.332 20.9727 17.332C20.9672 17.332 20.9625 17.332 20.957 17.332H20.9578C21.842 18.8576 22.3631 20.6804 22.3631 22.6215C22.3631 22.6276 22.3631 22.6337 22.3631 22.6397V22.639C22.3631 22.7603 22.3599 22.8801 22.3568 22.9961L22.356 22.9953Z" fill="white"/>
<path d="M32.9877 38.1035C32.9877 38.1019 32.9877 38.1003 32.9877 38.0979C32.9877 37.0175 33.4339 36.0293 34.173 35.2683L34.1676 35.2746C32.5648 35.4615 31.341 36.6571 31.341 38.1035C31.341 39.5498 32.5648 40.7454 34.1506 40.9308L34.1667 40.9323C33.433 40.1768 32.9868 39.1886 32.9868 38.1082C32.9868 38.1066 32.9868 38.1043 32.9868 38.1027L32.9877 38.1035Z" fill="white"/>
<path d="M26.1676 28.1874C26.1676 28.1867 26.1676 28.1859 26.1676 28.1844C26.1676 23.8133 28.6466 20.0461 32.2206 18.3247L32.2852 18.297L31.3603 17.332C25.6123 17.3425 20.957 22.1987 20.957 28.1882C20.957 34.1835 25.623 39.0443 31.3782 39.0443C31.3847 39.0443 31.3904 39.0443 31.3969 39.0443H31.4708C31.4227 38.8492 31.3954 38.6257 31.3954 38.3947C31.3954 38.1331 31.4306 37.8805 31.4966 37.6413L31.4923 37.6607C28.2922 35.7652 26.1683 32.2371 26.1683 28.1926C26.1683 28.1911 26.1683 28.1896 26.1683 28.1882L26.1676 28.1874Z" fill="white"/>
<path d="M35.1172 21.1081L36.5651 22.0521L44.5573 22.0463L35.1172 21.1081V21.1081Z" fill="white"/>
</svg>
