<svg width="28" height="23" viewBox="0 0 28 23" fill="none" xmlns="http://www.w3.org/2000/svg">
<path d="M6.93127 20.1052V18.9593C6.93799 18.8629 6.9241 18.7662 6.89054 18.6756C6.85699 18.585 6.80454 18.5026 6.73668 18.434C6.66882 18.3653 6.58713 18.3119 6.49704 18.2773C6.40695 18.2428 6.31054 18.2279 6.21423 18.2336C6.08819 18.2253 5.96226 18.2511 5.84955 18.3082C5.73685 18.3653 5.64151 18.4517 5.57346 18.5582C5.51144 18.4548 5.42274 18.3701 5.31668 18.313C5.21062 18.2558 5.09115 18.2284 4.97083 18.2336C4.86595 18.2283 4.7615 18.2505 4.66785 18.2981C4.57419 18.3457 4.49456 18.4169 4.43685 18.5047V18.2794H4.04016V20.1052H4.44064V19.0929C4.43198 19.0305 4.43725 18.9669 4.45605 18.9067C4.47485 18.8465 4.50673 18.7913 4.5494 18.7449C4.59206 18.6985 4.64445 18.6622 4.70281 18.6385C4.76116 18.6148 4.82403 18.6043 4.8869 18.6079C5.15008 18.6079 5.28359 18.7798 5.28359 19.0891V20.1052H5.68407V19.0929C5.67606 19.0306 5.68178 18.9673 5.70082 18.9074C5.71987 18.8475 5.75177 18.7925 5.7943 18.7463C5.83683 18.7 5.88895 18.6637 5.947 18.6398C6.00505 18.6159 6.06763 18.605 6.13033 18.6079C6.40111 18.6079 6.53079 18.7798 6.53079 19.0891V20.1052H6.93127ZM12.8584 18.2794H12.21V17.7256H11.8096V18.2794H11.4396V18.6423H11.8096V19.4749C11.8096 19.8989 11.9736 20.151 12.4427 20.151C12.618 20.1515 12.7898 20.1025 12.9385 20.0097L12.8241 19.6697C12.7177 19.7333 12.597 19.7688 12.4732 19.7729C12.2749 19.7729 12.21 19.6506 12.21 19.4673V18.6423H12.8584V18.2794ZM16.2416 18.2336C16.1449 18.2307 16.0492 18.254 15.9646 18.3011C15.88 18.3481 15.8097 18.4172 15.761 18.5009V18.2794H15.3681V20.1052H15.7648V19.0815C15.7648 18.7798 15.8945 18.6117 16.1539 18.6117C16.2387 18.6105 16.3229 18.6261 16.4018 18.6575L16.5238 18.2832C16.4332 18.2507 16.3378 18.234 16.2416 18.2336ZM11.1268 18.4245C10.9023 18.2908 10.6441 18.2245 10.3831 18.2336C9.92156 18.2336 9.62407 18.4551 9.62407 18.8179C9.62407 19.1159 9.84528 19.2992 10.2534 19.3565L10.4403 19.3832C10.6577 19.4138 10.7607 19.4711 10.7607 19.5742C10.7607 19.7155 10.6157 19.7958 10.3449 19.7958C10.1271 19.802 9.9135 19.7348 9.73847 19.6048L9.55159 19.9142C9.78264 20.0758 10.0594 20.1588 10.3411 20.151C10.8675 20.151 11.1726 19.9027 11.1726 19.5551C11.1726 19.2343 10.9323 19.0662 10.5356 19.0089L10.3488 18.9822C10.1771 18.9593 10.0398 18.9249 10.0398 18.8027C10.0398 18.669 10.1694 18.5888 10.3869 18.5888C10.5865 18.5918 10.7821 18.6457 10.9552 18.7454L11.1268 18.4245ZM21.753 18.2336C21.6563 18.2307 21.5606 18.254 21.476 18.3011C21.3914 18.3481 21.3211 18.4172 21.2724 18.5009V18.2794H20.8796V20.1052H21.2762V19.0815C21.2762 18.7798 21.4059 18.6117 21.6652 18.6117C21.7501 18.6105 21.8344 18.6261 21.9132 18.6575L22.0352 18.2832C21.9447 18.2507 21.8492 18.234 21.753 18.2336ZM16.642 19.1922C16.6368 19.3209 16.6584 19.4492 16.7057 19.5689C16.7529 19.6886 16.8246 19.7971 16.9162 19.8874C17.0078 19.9778 17.1173 20.0479 17.2376 20.0932C17.3579 20.1386 17.4863 20.1583 17.6147 20.151C17.8528 20.163 18.0868 20.0853 18.2707 19.9333L18.08 19.6124C17.9428 19.7171 17.7756 19.7747 17.6032 19.7767C17.4546 19.7676 17.315 19.7021 17.2129 19.5935C17.1108 19.4849 17.054 19.3414 17.054 19.1923C17.054 19.0431 17.1108 18.8996 17.2129 18.791C17.315 18.6824 17.4546 18.6169 17.6032 18.6079C17.7756 18.6098 17.9429 18.6674 18.08 18.7721L18.2707 18.4513C18.0868 18.2992 17.8528 18.2216 17.6147 18.2336C17.4863 18.2262 17.3579 18.2459 17.2376 18.2913C17.1173 18.3367 17.0079 18.4068 16.9162 18.4971C16.8246 18.5874 16.7529 18.6959 16.7057 18.8156C16.6585 18.9353 16.6368 19.0636 16.642 19.1922ZM20.357 19.1922V18.2794H19.9603V18.5009C19.8926 18.4136 19.805 18.3437 19.7048 18.2972C19.6046 18.2506 19.4947 18.2288 19.3844 18.2336C19.1386 18.2456 18.9069 18.3519 18.7372 18.5304C18.5675 18.7089 18.4728 18.9458 18.4728 19.1923C18.4728 19.4387 18.5675 19.6757 18.7372 19.8542C18.9069 20.0327 19.1386 20.1389 19.3844 20.151C19.4948 20.1557 19.6046 20.1339 19.7048 20.0874C19.805 20.0409 19.8926 19.971 19.9603 19.8836V20.1052H20.357V19.1922ZM18.8809 19.1922C18.8871 19.0845 18.9246 18.9809 18.9888 18.8943C19.0531 18.8076 19.1412 18.7417 19.2424 18.7046C19.3436 18.6676 19.4534 18.6609 19.5583 18.6856C19.6632 18.7103 19.7586 18.7652 19.8328 18.8435C19.9069 18.9219 19.9565 19.0202 19.9755 19.1264C19.9945 19.2326 19.982 19.3421 19.9396 19.4413C19.8972 19.5405 19.8268 19.6251 19.7369 19.6847C19.6471 19.7443 19.5418 19.7763 19.434 19.7767C19.3585 19.7777 19.2836 19.763 19.214 19.7336C19.1444 19.7042 19.0816 19.6607 19.0297 19.6058C18.9777 19.5509 18.9377 19.4858 18.9121 19.4146C18.8865 19.3434 18.8759 19.2677 18.8809 19.1922ZM14.0942 18.2336C13.8469 18.2466 13.6141 18.3551 13.4449 18.5362C13.2757 18.7174 13.1831 18.9571 13.1865 19.2051C13.19 19.4532 13.2892 19.6903 13.4634 19.8666C13.6377 20.043 13.8733 20.1449 14.1209 20.151C14.3931 20.1606 14.6592 20.0695 14.8685 19.8951L14.674 19.601C14.5233 19.7219 14.3368 19.789 14.1438 19.7919C14.0127 19.803 13.8825 19.7625 13.7807 19.6791C13.6789 19.5957 13.6135 19.4759 13.5984 19.345H14.9524C14.9562 19.2954 14.96 19.2457 14.96 19.1922C14.9562 18.6232 14.6053 18.2336 14.0942 18.2336ZM14.0866 18.5888C14.2064 18.5864 14.3223 18.6318 14.4088 18.7148C14.4953 18.7979 14.5454 18.9119 14.5481 19.0318H13.6022C13.6092 18.9093 13.6637 18.7943 13.7543 18.7115C13.8448 18.6287 13.9641 18.5846 14.0866 18.5888ZM24.0376 19.1922V17.5461H23.641V18.5009C23.5733 18.4136 23.4856 18.3437 23.3854 18.2972C23.2852 18.2506 23.1754 18.2288 23.0651 18.2336C22.8193 18.2456 22.5875 18.3519 22.4178 18.5304C22.2481 18.7088 22.1535 18.9458 22.1535 19.1923C22.1535 19.4387 22.2481 19.6757 22.4178 19.8542C22.5875 20.0327 22.8193 20.1389 23.0651 20.151C23.1754 20.1557 23.2853 20.1339 23.3855 20.0874C23.4856 20.0409 23.5733 19.971 23.641 19.8836V20.1052H24.0376V19.1922ZM24.6989 19.8406C24.7235 19.8404 24.7479 19.8453 24.7706 19.8548C24.7925 19.8639 24.8124 19.8771 24.8293 19.8937C24.846 19.9103 24.8594 19.9299 24.8688 19.9515C24.8783 19.9738 24.8832 19.9977 24.8832 20.0219C24.8832 20.0461 24.8783 20.0701 24.8688 20.0923C24.8594 20.1139 24.846 20.1334 24.8293 20.1499C24.8123 20.1665 24.7924 20.1798 24.7706 20.189C24.748 20.1988 24.7235 20.2037 24.6989 20.2035C24.6626 20.2039 24.627 20.1935 24.5966 20.1738C24.5661 20.154 24.5422 20.1257 24.5277 20.0923C24.5182 20.0701 24.5133 20.0461 24.5133 20.0219C24.5133 19.9977 24.5182 19.9738 24.5277 19.9515C24.537 19.9299 24.5503 19.9103 24.567 19.8937C24.5839 19.877 24.6039 19.8638 24.6259 19.8548C24.649 19.8452 24.6738 19.8404 24.6989 19.8406ZM24.6989 20.1635C24.7177 20.1636 24.7363 20.1598 24.7535 20.1524C24.7701 20.1452 24.7852 20.1349 24.7979 20.1221C24.8243 20.0955 24.839 20.0595 24.839 20.022C24.839 19.9845 24.8243 19.9486 24.7979 19.9219C24.7852 19.9092 24.7701 19.899 24.7535 19.8919C24.7363 19.8846 24.7177 19.8809 24.6989 19.881C24.6798 19.8809 24.6608 19.8846 24.6432 19.8919C24.6263 19.8989 24.611 19.9091 24.5981 19.9219C24.5717 19.9486 24.5569 19.9845 24.5569 20.022C24.5569 20.0595 24.5717 20.0955 24.5981 20.1221C24.611 20.135 24.6263 20.1453 24.6432 20.1524C24.6608 20.1598 24.6797 20.1636 24.6989 20.1635ZM24.7095 19.9371C24.7274 19.9359 24.7451 19.941 24.7595 19.9515C24.7653 19.9563 24.7699 19.9623 24.7729 19.9692C24.776 19.976 24.7774 19.9834 24.7771 19.9909C24.7773 19.9973 24.7761 20.0037 24.7737 20.0096C24.7713 20.0155 24.7677 20.0209 24.7631 20.0253C24.752 20.0352 24.7381 20.041 24.7233 20.042L24.7784 20.1056H24.7353L24.6843 20.0425H24.6678V20.1056H24.6318V19.9371H24.7095ZM24.6678 19.9687V20.0136H24.7091C24.7171 20.014 24.7249 20.012 24.7318 20.008C24.7346 20.0061 24.7368 20.0036 24.7383 20.0006C24.7398 19.9976 24.7404 19.9942 24.7402 19.9909C24.7404 19.9876 24.7397 19.9844 24.7382 19.9814C24.7367 19.9785 24.7345 19.976 24.7318 19.9742C24.7249 19.9702 24.7171 19.9683 24.7091 19.9687H24.6678ZM22.5616 19.1922C22.5678 19.0845 22.6053 18.9809 22.6695 18.8943C22.7337 18.8077 22.8219 18.7417 22.9231 18.7047C23.0243 18.6676 23.1341 18.661 23.239 18.6857C23.3439 18.7104 23.4393 18.7653 23.5134 18.8436C23.5875 18.9219 23.6371 19.0203 23.6561 19.1265C23.6751 19.2327 23.6626 19.3422 23.6202 19.4414C23.5778 19.5406 23.5073 19.6252 23.4175 19.6848C23.3277 19.7443 23.2224 19.7763 23.1146 19.7767C23.0391 19.7777 22.9642 19.763 22.8946 19.7336C22.825 19.7042 22.7622 19.6607 22.7103 19.6057C22.6583 19.5508 22.6183 19.4858 22.5927 19.4146C22.5671 19.3434 22.5565 19.2677 22.5616 19.1922ZM9.16637 19.1922V18.2794H8.76968V18.5009C8.70197 18.4136 8.61436 18.3437 8.51416 18.2972C8.41396 18.2506 8.30409 18.2288 8.19375 18.2336C7.94796 18.2456 7.71622 18.3519 7.54653 18.5304C7.37683 18.7089 7.28218 18.9458 7.28218 19.1923C7.28218 19.4387 7.37683 19.6757 7.54653 19.8542C7.71622 20.0327 7.94796 20.1389 8.19375 20.151C8.30409 20.1557 8.41396 20.1339 8.51416 20.0874C8.61436 20.0409 8.70197 19.971 8.76968 19.8836V20.1052H9.16637V19.1922ZM7.69031 19.1922C7.69647 19.0845 7.73398 18.9809 7.79822 18.8943C7.86245 18.8077 7.9506 18.7417 8.0518 18.7047C8.153 18.6676 8.26282 18.661 8.36771 18.6857C8.47261 18.7104 8.568 18.7653 8.64212 18.8436C8.71624 18.9219 8.76585 19.0203 8.78483 19.1265C8.8038 19.2327 8.79132 19.3422 8.74892 19.4414C8.70652 19.5406 8.63606 19.6252 8.54622 19.6848C8.45638 19.7443 8.35109 19.7763 8.24334 19.7767C8.16781 19.7777 8.09289 19.763 8.0233 19.7336C7.95371 19.7042 7.89096 19.6607 7.839 19.6057C7.78705 19.5508 7.74701 19.4858 7.72142 19.4146C7.69583 19.3434 7.68523 19.2677 7.69031 19.1922Z" fill="#231F20"/>
<path d="M17.0034 4.36533H10.9954V15.1775H17.0034V4.36533Z" fill="#FF5F00"/>
<path d="M11.3772 9.77136C11.3762 8.73007 11.6119 7.70222 12.0662 6.7656C12.5206 5.82899 13.1818 5.00816 13.9997 4.36528C12.9868 3.56795 11.7703 3.0721 10.4893 2.93441C9.20825 2.79672 7.91438 3.02274 6.75556 3.58664C5.59673 4.15054 4.61971 5.02956 3.93617 6.12324C3.25263 7.21692 2.89014 8.48112 2.89014 9.77136C2.89014 11.0616 3.25263 12.3258 3.93617 13.4195C4.61971 14.5132 5.59673 15.3922 6.75556 15.9561C7.91438 16.52 9.20825 16.746 10.4893 16.6083C11.7703 16.4706 12.9868 15.9748 13.9997 15.1774C13.1818 14.5346 12.5206 13.7137 12.0662 12.7771C11.6119 11.8405 11.3762 10.8126 11.3772 9.77136Z" fill="#EB001B"/>
<path d="M25.1086 9.77136C25.1087 11.0616 24.7463 12.3258 24.0627 13.4195C23.3792 14.5131 22.4023 15.3922 21.2435 15.9561C20.0847 16.52 18.7908 16.746 17.5098 16.6083C16.2288 16.4706 15.0123 15.9748 13.9994 15.1774C14.8166 14.5339 15.4773 13.7129 15.9316 12.7765C16.3859 11.84 16.6219 10.8125 16.6219 9.77136C16.6219 8.73023 16.3859 7.7027 15.9316 6.76624C15.4773 5.82977 14.8166 5.00881 13.9994 4.36528C15.0123 3.56795 16.2288 3.0721 17.5098 2.93441C18.7908 2.79672 20.0847 3.02275 21.2435 3.58665C22.4023 4.15056 23.3792 5.02958 24.0627 6.12326C24.7463 7.21694 25.1087 8.48114 25.1086 9.77136Z" fill="#F79E1B"/>
<path d="M24.4537 14.0322V13.8108H24.5428V13.7657H24.3158V13.8108H24.405V14.0322H24.4537ZM24.8943 14.0322V13.7653H24.8248L24.7447 13.9488L24.6647 13.7653H24.5951V14.0322H24.6442V13.8308L24.7193 14.0044H24.7702L24.8452 13.8304V14.0322H24.8943Z" fill="#F79E1B"/>
</svg>
