<svg width="80" height="48" viewBox="0 0 80 48" fill="none" xmlns="http://www.w3.org/2000/svg">
<rect width="80" height="48" rx="6" fill="#F6F8FA"/>
<g clip-path="url(#clip0_704_9929)">
<path d="M47.1289 35.9653H33.8779V12.2275H47.1292L47.1289 35.9653Z" fill="#FF5F00"/>
<path d="M34.718 24.0962C34.718 19.281 36.9798 14.9916 40.502 12.2273C37.8359 10.1318 34.5384 8.99453 31.1432 8.99953C22.7796 8.99953 16 15.7584 16 24.0962C16 32.434 22.7796 39.1929 31.1432 39.1929C34.5385 39.1979 37.8361 38.0606 40.5022 35.9651C36.9803 33.2013 34.718 28.9117 34.718 24.0962Z" fill="#EB001B"/>
<path d="M65.0062 24.0967C65.0062 32.4345 58.2265 39.1934 49.863 39.1934C46.4673 39.1984 43.1694 38.0611 40.5027 35.9656C44.0258 33.2013 46.2877 28.9121 46.2877 24.0967C46.2877 19.2813 44.0258 14.9921 40.5027 12.2278C43.1693 10.1324 46.4672 8.9951 49.8627 9.00002C58.2263 9.00002 65.0059 15.7589 65.0059 24.0967" fill="#F79E1B"/>
</g>
<defs>
<clipPath id="clip0_704_9929">
<rect width="49" height="38" fill="white" transform="translate(16 9)"/>
</clipPath>
</defs>
</svg>
