<svg width="40" height="41" viewBox="0 0 40 41" fill="none" xmlns="http://www.w3.org/2000/svg">
<g clip-path="url(#clip0)">
<path d="M19.9986 37.069C21.8907 37.069 23.4255 35.2336 23.4255 32.969H16.5716C16.5716 35.2336 18.1064 37.069 19.9986 37.069ZM31.5373 27.4782C30.5023 26.1483 28.5657 24.1476 28.5657 17.594C28.5657 12.6164 25.6471 8.6317 21.7118 7.6541V6.31904C21.7118 5.18706 20.9446 4.26904 19.9986 4.26904C19.0525 4.26904 18.2854 5.18706 18.2854 6.31904V7.6541C14.35 8.6317 11.4314 12.6164 11.4314 17.594C11.4314 24.1476 9.49482 26.1483 8.45982 27.4782C8.13839 27.8914 7.99589 28.3854 7.99857 28.869C8.00447 29.9197 8.69393 30.919 9.71821 30.919H30.2789C31.3032 30.919 31.9932 29.9197 31.9986 28.869C32.0012 28.3854 31.8587 27.8908 31.5373 27.4782Z" fill="#F64E60"/>
</g>
<g opacity="0.32" clip-path="url(#clip1)">
<path d="M11.5588 36.1567C13.3458 36.9125 15.292 35.7923 15.905 33.6536L9.43216 30.9158C8.8192 33.0545 9.77189 35.4009 11.5588 36.1567ZM25.0519 31.7084C24.4344 30.0389 23.147 27.3759 24.9209 21.1868C26.2682 16.4859 24.5904 11.557 21.1385 9.06176L21.4999 7.80094C21.8063 6.7319 21.3303 5.55849 20.4368 5.18059C19.5433 4.80268 18.5704 5.36322 18.264 6.43226L17.9026 7.69309C13.9215 7.04435 10.0866 9.64165 8.73934 14.3425C6.96548 20.5317 4.59504 21.6476 3.25761 22.4901C2.84222 22.7519 2.57395 23.1615 2.44557 23.6193C2.16676 24.6139 2.54739 25.8331 3.51472 26.2422L22.9322 34.4552C23.8995 34.8643 24.8216 34.1961 25.1111 33.2061C25.2445 32.7504 25.2438 32.2264 25.0519 31.7084Z" fill="#F64E60"/>
</g>
<g opacity="0.32" clip-path="url(#clip2)">
<path d="M28.1792 36.2636C29.9784 35.552 30.97 33.2295 30.3929 31.0762L23.8757 33.654C24.4529 35.8073 26.38 36.9753 28.1792 36.2636ZM36.7068 22.8043C35.3837 21.929 33.0324 20.755 31.3622 14.5234C30.0937 9.79028 26.303 7.09905 22.3119 7.64957L21.9716 6.3801C21.6831 5.30373 20.7197 4.71935 19.8201 5.07516C18.9205 5.43098 18.425 6.59241 18.7135 7.66878L19.0538 8.93825C15.5609 11.3479 13.8012 16.2345 15.0698 20.9676C16.74 27.1992 15.4084 29.8299 14.7631 31.4838C14.5628 31.9976 14.5532 32.5208 14.679 32.9797C14.9524 33.9765 15.8626 34.6675 16.8366 34.2822L36.3871 26.5494C37.3611 26.1641 37.7625 24.9543 37.4999 23.9533C37.3791 23.4924 37.1176 23.0757 36.7068 22.8043Z" fill="#F64E60"/>
</g>
<defs>
<clipPath id="clip0">
<rect width="24" height="32.8" fill="white" transform="translate(7.99902 4.26904)"/>
</clipPath>
<clipPath id="clip1">
<rect width="24.6096" height="32.2233" fill="white" transform="matrix(0.921004 0.389553 -0.275514 0.961297 9.10449 0.387695)"/>
</clipPath>
<clipPath id="clip2">
<rect width="24.5411" height="32.2892" fill="white" transform="matrix(0.929902 -0.367807 0.258881 0.965909 8.41016 9.58789)"/>
</clipPath>
</defs>
</svg>
