<svg width="15" height="16" viewBox="0 0 15 16" fill="none" xmlns="http://www.w3.org/2000/svg">
<rect width="15" height="16" fill="#F5F8FA"/>
<path opacity="0.3" d="M9.44105 11.8622C9.06067 11.4858 9.06067 10.8755 9.44105 10.4991C9.82143 10.1227 10.4382 10.1227 10.8185 10.4991L14.7147 14.3545C15.095 14.7309 15.095 15.3412 14.7147 15.7176C14.3343 16.094 13.7176 16.094 13.3372 15.7176L9.44105 11.8622Z" fill="#7A7A90"/>
<path fill-rule="evenodd" clip-rule="evenodd" d="M0 6.58824C0 10.2268 2.9808 13.1765 6.65779 13.1765C10.3348 13.1765 13.3156 10.2268 13.3156 6.58824C13.3156 2.94966 10.3348 0 6.65779 0C2.9808 0 0 2.94966 0 6.58824ZM11.4133 6.58822C11.4133 9.18722 9.28416 11.2941 6.65773 11.2941C4.0313 11.2941 1.90216 9.18722 1.90216 6.58822C1.90216 3.98923 4.0313 1.88234 6.65773 1.88234C9.28416 1.88234 11.4133 3.98923 11.4133 6.58822Z" fill="#7A7A90"/>
</svg>
