<svg width="59" height="59" viewBox="0 0 59 59" fill="none" xmlns="http://www.w3.org/2000/svg">
<path opacity="0.3" fill-rule="evenodd" clip-rule="evenodd" d="M19.6649 7.375H11.832C10.7275 7.375 9.83203 8.27043 9.83203 9.375V54.5417C9.83203 55.6462 10.7275 56.5417 11.832 56.5417H47.1654C48.2699 56.5417 49.1654 55.6462 49.1654 54.5417V9.375C49.1654 8.27043 48.2699 7.375 47.1654 7.375H39.3316V8.60417C39.3316 10.6407 37.6806 12.2917 35.6441 12.2917H23.3524C21.3158 12.2917 19.6649 10.6407 19.6649 8.60417V7.375Z" fill="#B5B5C3"/>
<path fill-rule="evenodd" clip-rule="evenodd" d="M31.9588 4.9125C31.9578 3.55567 30.8575 2.45605 29.5005 2.45605C28.1434 2.45605 27.0432 3.55567 27.0421 4.9125H22.625C22.3489 4.9125 22.125 5.13635 22.125 5.4125V9.32916C22.125 9.6053 22.3489 9.82916 22.625 9.82916H36.375C36.6511 9.82916 36.875 9.6053 36.875 9.32916V5.4125C36.875 5.13635 36.6511 4.9125 36.375 4.9125H31.9588Z" fill="#B5B5C3"/>
<rect x="17.207" y="24.5811" width="12.2917" height="4.91667" rx="2" fill="#B5B5C3"/>
<rect x="17.207" y="34.4189" width="22.125" height="4.91668" rx="2" fill="#B5B5C3"/>
</svg>
