<svg width="44" height="44" viewBox="0 0 44 44" fill="none" xmlns="http://www.w3.org/2000/svg">
<rect width="19" height="19" rx="1.5" fill="#00A3FF"/>
<path opacity="0.3" fill-rule="evenodd" clip-rule="evenodd" d="M24.75 1.5C24.75 0.671573 25.4216 0 26.25 0H42.5C43.3284 0 44 0.671573 44 1.5V17.75C44 18.5784 43.3284 19.25 42.5 19.25H26.25C25.4216 19.25 24.75 18.5784 24.75 17.75V1.5ZM0 26.25C0 25.4216 0.671573 24.75 1.5 24.75H17.75C18.5784 24.75 19.25 25.4216 19.25 26.25V42.5C19.25 43.3284 18.5784 44 17.75 44H1.5C0.671573 44 0 43.3284 0 42.5V26.25ZM26.25 24.75C25.4216 24.75 24.75 25.4216 24.75 26.25V42.5C24.75 43.3284 25.4216 44 26.25 44H42.5C43.3284 44 44 43.3284 44 42.5V26.25C44 25.4216 43.3284 24.75 42.5 24.75H26.25Z" fill="#00A3FF"/>
</svg>
