<svg width="80" height="48" viewBox="0 0 80 48" fill="none" xmlns="http://www.w3.org/2000/svg">
<rect width="80" height="48" rx="6" fill="#F6F8FA"/>
<path fill-rule="evenodd" clip-rule="evenodd" d="M27.4799 31.876H23.1599L19.9203 19.4636C19.7666 18.8926 19.4401 18.3879 18.9599 18.15C17.7614 17.5521 16.4407 17.0763 15 16.8363V16.3585H21.9593C22.9197 16.3585 23.6401 17.0763 23.7602 17.91L25.441 26.8634L29.7589 16.3585H33.9589L27.4799 31.876ZM36.3598 31.876H32.2799L35.6394 16.3585H39.7194L36.3598 31.876ZM44.9983 20.6567C45.1184 19.8209 45.8387 19.3431 46.6792 19.3431C47.9998 19.2231 49.4384 19.463 50.639 20.0588L51.3594 16.7178C50.1588 16.24 48.8381 16 47.6396 16C43.6798 16 40.7983 18.1494 40.7983 21.1325C40.7983 23.4019 42.8393 24.5935 44.2801 25.3113C45.8387 26.0271 46.439 26.505 46.319 27.2208C46.319 28.2944 45.1184 28.7723 43.9199 28.7723C42.4792 28.7723 41.0385 28.4144 39.7199 27.8166L38.9995 31.1596C40.4403 31.7554 41.9989 31.9954 43.4396 31.9954C47.8798 32.1133 50.639 29.966 50.639 26.7429C50.639 22.684 44.9983 22.4461 44.9983 20.6567ZM64.9176 31.876L61.6781 16.3585H58.1985C57.4781 16.3585 56.7577 16.8363 56.5176 17.5521L50.5188 31.876H54.7188L55.5571 29.6086H60.7176L61.1978 31.876H64.9176ZM58.7989 20.5368L59.9974 26.385H56.6379L58.7989 20.5368Z" fill="#172B85"/>
</svg>
