<svg width="112" height="80" viewBox="0 0 112 80" fill="none" xmlns="http://www.w3.org/2000/svg">
<g filter="url(#filter0_d)">
<rect x="40.5" y="16.5893" width="31" height="22.8333" rx="2.5" fill="white" stroke="#F5F8FA"/>
<path fill-rule="evenodd" clip-rule="evenodd" d="M56.1805 33.3496C55.091 34.3707 53.6779 34.9871 52.1337 34.9871C48.688 34.9871 45.8948 31.918 45.8948 28.1321C45.8948 24.3461 48.688 21.277 52.1337 21.277C53.6779 21.277 55.0911 21.8935 56.1805 22.9146C57.2699 21.8935 58.6831 21.2771 60.2273 21.2771C63.6729 21.2771 66.4662 24.3462 66.4662 28.1321C66.4662 31.9181 63.6729 34.9872 60.2273 34.9872C58.6831 34.9872 57.2699 34.3707 56.1805 33.3496Z" fill="#ED0006"/>
<path fill-rule="evenodd" clip-rule="evenodd" d="M56.1805 33.3496C57.522 32.0922 58.3726 30.2213 58.3726 28.1321C58.3726 26.0429 57.522 24.172 56.1805 22.9146C57.27 21.8935 58.6832 21.277 60.2274 21.277C63.673 21.277 66.4662 24.3461 66.4662 28.1321C66.4662 31.918 63.673 34.9871 60.2274 34.9871C58.6832 34.9871 57.27 34.3707 56.1805 33.3496Z" fill="#F9A000"/>
<path fill-rule="evenodd" clip-rule="evenodd" d="M56.1804 33.3497C57.5218 32.0924 58.3723 30.2215 58.3723 28.1323C58.3723 26.0431 57.5218 24.1723 56.1804 22.9149C54.839 24.1723 53.9884 26.0431 53.9884 28.1323C53.9884 30.2215 54.839 32.0924 56.1804 33.3497Z" fill="#FF5E00"/>
</g>
<defs>
<filter id="filter0_d" x="0" y="-23.9107" width="112" height="103.833" filterUnits="userSpaceOnUse" color-interpolation-filters="sRGB">
<feFlood flood-opacity="0" result="BackgroundImageFix"/>
<feColorMatrix in="SourceAlpha" type="matrix" values="0 0 0 0 0 0 0 0 0 0 0 0 0 0 0 0 0 0 127 0" result="hardAlpha"/>
<feOffset/>
<feGaussianBlur stdDeviation="20"/>
<feColorMatrix type="matrix" values="0 0 0 0 0 0 0 0 0 0 0 0 0 0 0 0 0 0 0.08 0"/>
<feBlend mode="normal" in2="BackgroundImageFix" result="effect1_dropShadow"/>
<feBlend mode="normal" in="SourceGraphic" in2="effect1_dropShadow" result="shape"/>
</filter>
</defs>
</svg>
